<svg enable-background="new 0 0 24 24" height="512" viewBox="0 0 24 24" width="512" xmlns="http://www.w3.org/2000/svg"><path d="m17.5 9c1.654 0 3.193.482 4.5 1.302v-7.702l-10.16 5.03c-.52.26-1.16.26-1.68 0l-10.16-5.03v9.15c0 1.24 1.01 2.25 2.25 2.25h7.513c1.337-2.944 4.298-5 7.737-5z" fill="#eceff1"/><path d="m22 2.25v.6l-10.16 5.03c-.52.26-1.16.26-1.68 0l-10.16-5.03v-.6c0-1.24 1.01-2.25 2.25-2.25h17.5c1.24 0 2.25 1.01 2.25 2.25z" fill="#b0bec5"/><g fill="#2196f3"><path d="m17.5 21c-1.93 0-3.5-1.57-3.5-3.5s1.57-3.5 3.5-3.5 3.5 1.57 3.5 3.5-1.57 3.5-3.5 3.5zm0-5.5c-1.103 0-2 .897-2 2s.897 2 2 2 2-.897 2-2-.897-2-2-2z"/><path d="m17.5 24c-1.966 0-3.805-.875-5.046-2.402s-1.718-3.527-1.31-5.488c.513-2.458 2.508-4.453 4.965-4.965 1.961-.408 3.962.069 5.488 1.31 1.527 1.24 2.403 3.08 2.403 5.045v1.25c0 1.241-1.01 2.25-2.25 2.25s-2.25-1.009-2.25-2.25v-4c0-.414.336-.75.75-.75s.75.336.75.75v4c0 .414.337.75.75.75s.75-.336.75-.75v-1.25c0-1.512-.674-2.927-1.849-3.882-1.175-.956-2.721-1.322-4.235-1.005-1.882.392-3.41 1.92-3.803 3.803-.316 1.518.05 3.062 1.005 4.236s2.37 1.848 3.882 1.848c.414 0 .75.336.75.75s-.336.75-.75.75z"/></g></svg>