<?xml version="1.0" encoding="utf-8"?>
<!-- Generator: Adobe Illustrator 24.0.2, SVG Export Plug-In . SVG Version: 6.00 Build 0)  -->
<svg version="1.1" id="Capa_1" xmlns="http://www.w3.org/2000/svg" xmlns:xlink="http://www.w3.org/1999/xlink" x="0px" y="0px"
	 viewBox="0 0 60 75" style="enable-background:new 0 0 60 75;" xml:space="preserve">
<style type="text/css">
	.st0{fill:#FFFFFF;}
</style>
<g>
	<g>
		<g>
			<path class="st0" d="M6,19c-0.6,0-1-0.4-1-1V6c0-0.6,0.4-1,1-1s1,0.4,1,1v12C7,18.6,6.6,19,6,19z"/>
		</g>
		<g>
			<path class="st0" d="M28.5,19c-0.6,0-1-0.4-1-1V6c0-0.6,0.4-1,1-1s1,0.4,1,1v12C29.5,18.6,29.1,19,28.5,19z"/>
		</g>
		<g>
			<path class="st0" d="M17.3,19c-2.2,0-3.9-1.8-3.9-3.9V8.9c0-2.2,1.8-3.9,3.9-3.9s3.9,1.8,3.9,3.9v6.1C21.2,17.2,19.4,19,17.3,19z
				 M17.3,7c-1.1,0-1.9,0.9-1.9,1.9v6.1c0,1.1,0.9,1.9,1.9,1.9s1.9-0.9,1.9-1.9V8.9C19.2,7.9,18.3,7,17.3,7z"/>
		</g>
		<g>
			<path class="st0" d="M51.1,19c-2.2,0-3.9-1.8-3.9-3.9V8.9c0-2.2,1.8-3.9,3.9-3.9S55,6.8,55,8.9v6.1C55,17.2,53.2,19,51.1,19z
				 M51.1,7c-1.1,0-1.9,0.9-1.9,1.9v6.1c0,1.1,0.9,1.9,1.9,1.9s1.9-0.9,1.9-1.9V8.9C53,7.9,52.1,7,51.1,7z"/>
		</g>
		<g>
			<path class="st0" d="M39.8,19c-2.2,0-3.9-1.8-3.9-3.9V8.9c0-2.2,1.8-3.9,3.9-3.9s3.9,1.8,3.9,3.9v6.1C43.7,17.2,42,19,39.8,19z
				 M39.8,7c-1.1,0-1.9,0.9-1.9,1.9v6.1c0,1.1,0.9,1.9,1.9,1.9s1.9-0.9,1.9-1.9V8.9C41.7,7.9,40.9,7,39.8,7z"/>
		</g>
	</g>
	<g>
		<g>
			<path class="st0" d="M54,37c-0.6,0-1-0.4-1-1V24c0-0.6,0.4-1,1-1s1,0.4,1,1v12C55,36.6,54.6,37,54,37z"/>
		</g>
		<g>
			<path class="st0" d="M31.5,37c-0.6,0-1-0.4-1-1V24c0-0.6,0.4-1,1-1s1,0.4,1,1v12C32.5,36.6,32,37,31.5,37z"/>
		</g>
		<g>
			<path class="st0" d="M42.7,37c-2.2,0-3.9-1.8-3.9-3.9v-6.1c0-2.2,1.8-3.9,3.9-3.9s3.9,1.8,3.9,3.9v6.1C46.7,35.2,44.9,37,42.7,37
				z M42.7,25c-1.1,0-1.9,0.9-1.9,1.9v6.1c0,1.1,0.9,1.9,1.9,1.9s1.9-0.9,1.9-1.9v-6.1C44.7,25.9,43.8,25,42.7,25z"/>
		</g>
		<g>
			<path class="st0" d="M8.9,37C6.8,37,5,35.2,5,33.1v-6.1C5,24.8,6.8,23,8.9,23s3.9,1.8,3.9,3.9v6.1C12.9,35.2,11.1,37,8.9,37z
				 M8.9,25C7.9,25,7,25.9,7,26.9v6.1C7,34.1,7.9,35,8.9,35s1.9-0.9,1.9-1.9v-6.1C10.9,25.9,10,25,8.9,25z"/>
		</g>
		<g>
			<path class="st0" d="M20.2,37c-2.2,0-3.9-1.8-3.9-3.9v-6.1c0-2.2,1.8-3.9,3.9-3.9s3.9,1.8,3.9,3.9v6.1C24.1,35.2,22.4,37,20.2,37
				z M20.2,25c-1.1,0-1.9,0.9-1.9,1.9v6.1c0,1.1,0.9,1.9,1.9,1.9s1.9-0.9,1.9-1.9v-6.1C22.1,25.9,21.3,25,20.2,25z"/>
		</g>
	</g>
	<g>
		<g>
			<path class="st0" d="M6,55c-0.6,0-1-0.4-1-1V42c0-0.6,0.4-1,1-1s1,0.4,1,1v12C7,54.6,6.6,55,6,55z"/>
		</g>
		<g>
			<path class="st0" d="M28.5,55c-0.6,0-1-0.4-1-1V42c0-0.6,0.4-1,1-1s1,0.4,1,1v12C29.5,54.6,29.1,55,28.5,55z"/>
		</g>
		<g>
			<path class="st0" d="M17.3,55c-2.2,0-3.9-1.8-3.9-3.9v-6.1c0-2.2,1.8-3.9,3.9-3.9s3.9,1.8,3.9,3.9v6.1C21.2,53.2,19.4,55,17.3,55
				z M17.3,43c-1.1,0-1.9,0.9-1.9,1.9v6.1c0,1.1,0.9,1.9,1.9,1.9s1.9-0.9,1.9-1.9v-6.1C19.2,43.9,18.3,43,17.3,43z"/>
		</g>
		<g>
			<path class="st0" d="M51.1,55c-2.2,0-3.9-1.8-3.9-3.9v-6.1c0-2.2,1.8-3.9,3.9-3.9s3.9,1.8,3.9,3.9v6.1C55,53.2,53.2,55,51.1,55z
				 M51.1,43c-1.1,0-1.9,0.9-1.9,1.9v6.1c0,1.1,0.9,1.9,1.9,1.9s1.9-0.9,1.9-1.9v-6.1C53,43.9,52.1,43,51.1,43z"/>
		</g>
		<g>
			<path class="st0" d="M39.8,55c-2.2,0-3.9-1.8-3.9-3.9v-6.1c0-2.2,1.8-3.9,3.9-3.9s3.9,1.8,3.9,3.9v6.1C43.7,53.2,42,55,39.8,55z
				 M39.8,43c-1.1,0-1.9,0.9-1.9,1.9v6.1c0,1.1,0.9,1.9,1.9,1.9s1.9-0.9,1.9-1.9v-6.1C41.7,43.9,40.9,43,39.8,43z"/>
		</g>
	</g>
</g>
</svg>
